<?xml version="1.0" standalone="no"?><!DOCTYPE svg PUBLIC "-//W3C//DTD SVG 1.1//EN" "http://www.w3.org/Graphics/SVG/1.1/DTD/svg11.dtd"><svg t="1739154985200" class="icon" viewBox="0 0 1024 1024" version="1.1" xmlns="http://www.w3.org/2000/svg" p-id="23568" xmlns:xlink="http://www.w3.org/1999/xlink" width="200" height="200"><path d="M95.480474 879.768319V73.68846A28.756472 28.756472 0 0 1 124.236946 44.931988h566.143045l187.366389 190.511628v245.777972h44.931988V217.021501L708.802106 0h-584.11584A74.13778 74.13778 0 0 0 50.548486 73.68846v806.079859a74.13778 74.13778 0 0 0 73.68846 73.68846h293.8552v-44.931987H124.236946a28.756472 28.756472 0 0 1-28.756472-28.756473z" p-id="23569"></path><path d="M198.374726 187.815709h482.569548v44.931987H198.374726zM207.810443 360.354541h567.041685v44.931988H207.810443zM198.374726 529.298815H427.977183v44.931988H198.374726zM949.18824 567.491005a75.935059 75.935059 0 0 0-54.367705-22.915314h-323.510311a82.225538 82.225538 0 0 0-81.326898 77.283019v324.858271a78.630978 78.630978 0 0 0 77.283019 77.283019h278.129004l128.056165-109.18473v-292.95656a76.384379 76.384379 0 0 0-24.263274-54.367705z m-22.016674 326.655551l-99.749012 84.921456H567.266345a33.249671 33.249671 0 0 1-32.351031-32.351031v-321.713032a37.74287 37.74287 0 0 1 36.84423-35.49627h324.858271a32.351031 32.351031 0 0 1 32.351031 32.351031z" p-id="23570"></path><path d="M695.32251 815.515577L643.201404 763.843791l-31.901711 31.452392 84.022817 84.022817 156.812637-156.812638-31.901711-31.901711-124.910926 124.910926z" p-id="23571"></path></svg>